<?xml version="1.0" encoding="utf-8" standalone="no"?>
<!DOCTYPE svg PUBLIC "-//W3C//DTD SVG 1.1//EN"
  "http://www.w3.org/Graphics/SVG/1.1/DTD/svg11.dtd">
<svg xmlns:xlink="http://www.w3.org/1999/xlink" width="424.602969pt" height="280.719844pt" viewBox="0 0 424.602969 280.719844" xmlns="http://www.w3.org/2000/svg" version="1.1">
 <metadata>
  <rdf:RDF xmlns:dc="http://purl.org/dc/elements/1.1/" xmlns:cc="http://creativecommons.org/ns#" xmlns:rdf="http://www.w3.org/1999/02/22-rdf-syntax-ns#">
   <cc:Work>
    <dc:type rdf:resource="http://purl.org/dc/dcmitype/StillImage"/>
    <dc:date>2023-01-28T15:29:09.869300</dc:date>
    <dc:format>image/svg+xml</dc:format>
    <dc:creator>
     <cc:Agent>
      <dc:title>Matplotlib v3.5.3, https://matplotlib.org/</dc:title>
     </cc:Agent>
    </dc:creator>
   </cc:Work>
  </rdf:RDF>
 </metadata>
 <defs>
  <style type="text/css">*{stroke-linejoin: round; stroke-linecap: butt}</style>
 </defs>
 <g id="figure_1">
  <g id="patch_1">
   <path d="M -0 280.719844 
L 424.602969 280.719844 
L 424.602969 0 
L -0 0 
z
" style="fill: #ffffff"/>
  </g>
  <g id="axes_1">
   <g id="patch_2">
    <path d="M 47.192188 237.99625 
L 403.572187 237.99625 
L 403.572187 7.2 
L 47.192188 7.2 
z
" style="fill: #ffffff"/>
   </g>
   <g id="matplotlib.axis_1">
    <g id="xtick_1">
     <g id="line2d_1">
      <path d="M 47.192188 237.99625 
L 47.192188 7.2 
" clip-path="url(#p40ef707ad1)" style="fill: none; stroke: #b0b0b0; stroke-opacity: 0.3; stroke-width: 0.8; stroke-linecap: square"/>
     </g>
     <g id="line2d_2">
      <defs>
       <path id="mf07a8dbd1e" d="M 0 0 
L 0 3.5 
" style="stroke: #000000; stroke-width: 0.8"/>
      </defs>
      <g>
       <use xlink:href="#mf07a8dbd1e" x="47.192188" y="237.99625" style="stroke: #000000; stroke-width: 0.8"/>
      </g>
     </g>
     <g id="text_1">
      <!-- 0 -->
      <g transform="translate(43.942188 254.023125)scale(0.13 -0.13)">
       <defs>
        <path id="TimesNewRomanPSMT-30" d="M 231 2094 
Q 231 2819 450 3342 
Q 669 3866 1031 4122 
Q 1313 4325 1613 4325 
Q 2100 4325 2488 3828 
Q 2972 3213 2972 2159 
Q 2972 1422 2759 906 
Q 2547 391 2217 158 
Q 1888 -75 1581 -75 
Q 975 -75 572 641 
Q 231 1244 231 2094 
z
M 844 2016 
Q 844 1141 1059 588 
Q 1238 122 1591 122 
Q 1759 122 1940 273 
Q 2122 425 2216 781 
Q 2359 1319 2359 2297 
Q 2359 3022 2209 3506 
Q 2097 3866 1919 4016 
Q 1791 4119 1609 4119 
Q 1397 4119 1231 3928 
Q 1006 3669 925 3112 
Q 844 2556 844 2016 
z
" transform="scale(0.015625)"/>
       </defs>
       <use xlink:href="#TimesNewRomanPSMT-30"/>
      </g>
     </g>
    </g>
    <g id="xtick_2">
     <g id="line2d_3">
      <path d="M 82.830188 237.99625 
L 82.830188 7.2 
" clip-path="url(#p40ef707ad1)" style="fill: none; stroke: #b0b0b0; stroke-opacity: 0.3; stroke-width: 0.8; stroke-linecap: square"/>
     </g>
     <g id="line2d_4">
      <g>
       <use xlink:href="#mf07a8dbd1e" x="82.830188" y="237.99625" style="stroke: #000000; stroke-width: 0.8"/>
      </g>
     </g>
     <g id="text_2">
      <!-- 2 -->
      <g transform="translate(79.580188 254.023125)scale(0.13 -0.13)">
       <defs>
        <path id="TimesNewRomanPSMT-32" d="M 2934 816 
L 2638 0 
L 138 0 
L 138 116 
Q 1241 1122 1691 1759 
Q 2141 2397 2141 2925 
Q 2141 3328 1894 3587 
Q 1647 3847 1303 3847 
Q 991 3847 742 3664 
Q 494 3481 375 3128 
L 259 3128 
Q 338 3706 661 4015 
Q 984 4325 1469 4325 
Q 1984 4325 2329 3994 
Q 2675 3663 2675 3213 
Q 2675 2891 2525 2569 
Q 2294 2063 1775 1497 
Q 997 647 803 472 
L 1909 472 
Q 2247 472 2383 497 
Q 2519 522 2628 598 
Q 2738 675 2819 816 
L 2934 816 
z
" transform="scale(0.015625)"/>
       </defs>
       <use xlink:href="#TimesNewRomanPSMT-32"/>
      </g>
     </g>
    </g>
    <g id="xtick_3">
     <g id="line2d_5">
      <path d="M 118.468187 237.99625 
L 118.468187 7.2 
" clip-path="url(#p40ef707ad1)" style="fill: none; stroke: #b0b0b0; stroke-opacity: 0.3; stroke-width: 0.8; stroke-linecap: square"/>
     </g>
     <g id="line2d_6">
      <g>
       <use xlink:href="#mf07a8dbd1e" x="118.468187" y="237.99625" style="stroke: #000000; stroke-width: 0.8"/>
      </g>
     </g>
     <g id="text_3">
      <!-- 4 -->
      <g transform="translate(115.218187 254.023125)scale(0.13 -0.13)">
       <defs>
        <path id="TimesNewRomanPSMT-34" d="M 2978 1563 
L 2978 1119 
L 2409 1119 
L 2409 0 
L 1894 0 
L 1894 1119 
L 100 1119 
L 100 1519 
L 2066 4325 
L 2409 4325 
L 2409 1563 
L 2978 1563 
z
M 1894 1563 
L 1894 3666 
L 406 1563 
L 1894 1563 
z
" transform="scale(0.015625)"/>
       </defs>
       <use xlink:href="#TimesNewRomanPSMT-34"/>
      </g>
     </g>
    </g>
    <g id="xtick_4">
     <g id="line2d_7">
      <path d="M 154.106188 237.99625 
L 154.106188 7.2 
" clip-path="url(#p40ef707ad1)" style="fill: none; stroke: #b0b0b0; stroke-opacity: 0.3; stroke-width: 0.8; stroke-linecap: square"/>
     </g>
     <g id="line2d_8">
      <g>
       <use xlink:href="#mf07a8dbd1e" x="154.106188" y="237.99625" style="stroke: #000000; stroke-width: 0.8"/>
      </g>
     </g>
     <g id="text_4">
      <!-- 6 -->
      <g transform="translate(150.856188 254.023125)scale(0.13 -0.13)">
       <defs>
        <path id="TimesNewRomanPSMT-36" d="M 2869 4325 
L 2869 4209 
Q 2456 4169 2195 4045 
Q 1934 3922 1679 3669 
Q 1425 3416 1258 3105 
Q 1091 2794 978 2366 
Q 1428 2675 1881 2675 
Q 2316 2675 2634 2325 
Q 2953 1975 2953 1425 
Q 2953 894 2631 456 
Q 2244 -75 1606 -75 
Q 1172 -75 869 213 
Q 275 772 275 1663 
Q 275 2231 503 2743 
Q 731 3256 1154 3653 
Q 1578 4050 1965 4187 
Q 2353 4325 2688 4325 
L 2869 4325 
z
M 925 2138 
Q 869 1716 869 1456 
Q 869 1156 980 804 
Q 1091 453 1309 247 
Q 1469 100 1697 100 
Q 1969 100 2183 356 
Q 2397 613 2397 1088 
Q 2397 1622 2184 2012 
Q 1972 2403 1581 2403 
Q 1463 2403 1327 2353 
Q 1191 2303 925 2138 
z
" transform="scale(0.015625)"/>
       </defs>
       <use xlink:href="#TimesNewRomanPSMT-36"/>
      </g>
     </g>
    </g>
    <g id="xtick_5">
     <g id="line2d_9">
      <path d="M 189.744188 237.99625 
L 189.744188 7.2 
" clip-path="url(#p40ef707ad1)" style="fill: none; stroke: #b0b0b0; stroke-opacity: 0.3; stroke-width: 0.8; stroke-linecap: square"/>
     </g>
     <g id="line2d_10">
      <g>
       <use xlink:href="#mf07a8dbd1e" x="189.744188" y="237.99625" style="stroke: #000000; stroke-width: 0.8"/>
      </g>
     </g>
     <g id="text_5">
      <!-- 8 -->
      <g transform="translate(186.494188 254.023125)scale(0.13 -0.13)">
       <defs>
        <path id="TimesNewRomanPSMT-38" d="M 1228 2134 
Q 725 2547 579 2797 
Q 434 3047 434 3316 
Q 434 3728 753 4026 
Q 1072 4325 1600 4325 
Q 2113 4325 2425 4047 
Q 2738 3769 2738 3413 
Q 2738 3175 2569 2928 
Q 2400 2681 1866 2347 
Q 2416 1922 2594 1678 
Q 2831 1359 2831 1006 
Q 2831 559 2490 242 
Q 2150 -75 1597 -75 
Q 994 -75 656 303 
Q 388 606 388 966 
Q 388 1247 577 1523 
Q 766 1800 1228 2134 
z
M 1719 2469 
Q 2094 2806 2194 3001 
Q 2294 3197 2294 3444 
Q 2294 3772 2109 3958 
Q 1925 4144 1606 4144 
Q 1288 4144 1088 3959 
Q 888 3775 888 3528 
Q 888 3366 970 3203 
Q 1053 3041 1206 2894 
L 1719 2469 
z
M 1375 2016 
Q 1116 1797 991 1539 
Q 866 1281 866 981 
Q 866 578 1086 336 
Q 1306 94 1647 94 
Q 1984 94 2187 284 
Q 2391 475 2391 747 
Q 2391 972 2272 1150 
Q 2050 1481 1375 2016 
z
" transform="scale(0.015625)"/>
       </defs>
       <use xlink:href="#TimesNewRomanPSMT-38"/>
      </g>
     </g>
    </g>
    <g id="xtick_6">
     <g id="line2d_11">
      <path d="M 225.382188 237.99625 
L 225.382188 7.2 
" clip-path="url(#p40ef707ad1)" style="fill: none; stroke: #b0b0b0; stroke-opacity: 0.3; stroke-width: 0.8; stroke-linecap: square"/>
     </g>
     <g id="line2d_12">
      <g>
       <use xlink:href="#mf07a8dbd1e" x="225.382188" y="237.99625" style="stroke: #000000; stroke-width: 0.8"/>
      </g>
     </g>
     <g id="text_6">
      <!-- 10 -->
      <g transform="translate(218.882188 254.023125)scale(0.13 -0.13)">
       <defs>
        <path id="TimesNewRomanPSMT-31" d="M 750 3822 
L 1781 4325 
L 1884 4325 
L 1884 747 
Q 1884 391 1914 303 
Q 1944 216 2037 169 
Q 2131 122 2419 116 
L 2419 0 
L 825 0 
L 825 116 
Q 1125 122 1212 167 
Q 1300 213 1334 289 
Q 1369 366 1369 747 
L 1369 3034 
Q 1369 3497 1338 3628 
Q 1316 3728 1258 3775 
Q 1200 3822 1119 3822 
Q 1003 3822 797 3725 
L 750 3822 
z
" transform="scale(0.015625)"/>
       </defs>
       <use xlink:href="#TimesNewRomanPSMT-31"/>
       <use xlink:href="#TimesNewRomanPSMT-30" x="50"/>
      </g>
     </g>
    </g>
    <g id="xtick_7">
     <g id="line2d_13">
      <path d="M 261.020187 237.99625 
L 261.020187 7.2 
" clip-path="url(#p40ef707ad1)" style="fill: none; stroke: #b0b0b0; stroke-opacity: 0.3; stroke-width: 0.8; stroke-linecap: square"/>
     </g>
     <g id="line2d_14">
      <g>
       <use xlink:href="#mf07a8dbd1e" x="261.020187" y="237.99625" style="stroke: #000000; stroke-width: 0.8"/>
      </g>
     </g>
     <g id="text_7">
      <!-- 12 -->
      <g transform="translate(254.520187 254.023125)scale(0.13 -0.13)">
       <use xlink:href="#TimesNewRomanPSMT-31"/>
       <use xlink:href="#TimesNewRomanPSMT-32" x="50"/>
      </g>
     </g>
    </g>
    <g id="xtick_8">
     <g id="line2d_15">
      <path d="M 296.658187 237.99625 
L 296.658187 7.2 
" clip-path="url(#p40ef707ad1)" style="fill: none; stroke: #b0b0b0; stroke-opacity: 0.3; stroke-width: 0.8; stroke-linecap: square"/>
     </g>
     <g id="line2d_16">
      <g>
       <use xlink:href="#mf07a8dbd1e" x="296.658187" y="237.99625" style="stroke: #000000; stroke-width: 0.8"/>
      </g>
     </g>
     <g id="text_8">
      <!-- 14 -->
      <g transform="translate(290.158187 254.023125)scale(0.13 -0.13)">
       <use xlink:href="#TimesNewRomanPSMT-31"/>
       <use xlink:href="#TimesNewRomanPSMT-34" x="50"/>
      </g>
     </g>
    </g>
    <g id="xtick_9">
     <g id="line2d_17">
      <path d="M 332.296187 237.99625 
L 332.296187 7.2 
" clip-path="url(#p40ef707ad1)" style="fill: none; stroke: #b0b0b0; stroke-opacity: 0.3; stroke-width: 0.8; stroke-linecap: square"/>
     </g>
     <g id="line2d_18">
      <g>
       <use xlink:href="#mf07a8dbd1e" x="332.296187" y="237.99625" style="stroke: #000000; stroke-width: 0.8"/>
      </g>
     </g>
     <g id="text_9">
      <!-- 16 -->
      <g transform="translate(325.796187 254.023125)scale(0.13 -0.13)">
       <use xlink:href="#TimesNewRomanPSMT-31"/>
       <use xlink:href="#TimesNewRomanPSMT-36" x="50"/>
      </g>
     </g>
    </g>
    <g id="xtick_10">
     <g id="line2d_19">
      <path d="M 367.934187 237.99625 
L 367.934187 7.2 
" clip-path="url(#p40ef707ad1)" style="fill: none; stroke: #b0b0b0; stroke-opacity: 0.3; stroke-width: 0.8; stroke-linecap: square"/>
     </g>
     <g id="line2d_20">
      <g>
       <use xlink:href="#mf07a8dbd1e" x="367.934187" y="237.99625" style="stroke: #000000; stroke-width: 0.8"/>
      </g>
     </g>
     <g id="text_10">
      <!-- 18 -->
      <g transform="translate(361.434187 254.023125)scale(0.13 -0.13)">
       <use xlink:href="#TimesNewRomanPSMT-31"/>
       <use xlink:href="#TimesNewRomanPSMT-38" x="50"/>
      </g>
     </g>
    </g>
    <g id="xtick_11">
     <g id="line2d_21">
      <path d="M 403.572187 237.99625 
L 403.572187 7.2 
" clip-path="url(#p40ef707ad1)" style="fill: none; stroke: #b0b0b0; stroke-opacity: 0.3; stroke-width: 0.8; stroke-linecap: square"/>
     </g>
     <g id="line2d_22">
      <g>
       <use xlink:href="#mf07a8dbd1e" x="403.572187" y="237.99625" style="stroke: #000000; stroke-width: 0.8"/>
      </g>
     </g>
     <g id="text_11">
      <!-- &gt;=20 -->
      <g transform="translate(389.741406 254.023125)scale(0.13 -0.13)">
       <defs>
        <path id="TimesNewRomanPSMT-3e" d="M 3478 2041 
L 116 584 
L 116 853 
L 3013 2109 
L 116 3378 
L 116 3663 
L 3478 2194 
L 3478 2041 
z
" transform="scale(0.015625)"/>
        <path id="TimesNewRomanPSMT-3d" d="M 116 2759 
L 3488 2759 
L 3488 2503 
L 116 2503 
L 116 2759 
z
M 116 1741 
L 3488 1741 
L 3488 1484 
L 116 1484 
L 116 1741 
z
" transform="scale(0.015625)"/>
       </defs>
       <use xlink:href="#TimesNewRomanPSMT-3e"/>
       <use xlink:href="#TimesNewRomanPSMT-3d" x="56.396484"/>
       <use xlink:href="#TimesNewRomanPSMT-32" x="112.792969"/>
       <use xlink:href="#TimesNewRomanPSMT-30" x="162.792969"/>
      </g>
     </g>
    </g>
    <g id="text_12">
     <!-- Distance from Obstacle (r) in m -->
     <g transform="translate(136.161719 270.525156)scale(0.14 -0.14)">
      <defs>
       <path id="TimesNewRomanPSMT-44" d="M 109 0 
L 109 116 
L 269 116 
Q 538 116 650 288 
Q 719 391 719 750 
L 719 3488 
Q 719 3884 631 3984 
Q 509 4122 269 4122 
L 109 4122 
L 109 4238 
L 1834 4238 
Q 2784 4238 3279 4022 
Q 3775 3806 4076 3303 
Q 4378 2800 4378 2141 
Q 4378 1256 3841 663 
Q 3238 0 2003 0 
L 109 0 
z
M 1319 306 
Q 1716 219 1984 219 
Q 2709 219 3187 728 
Q 3666 1238 3666 2109 
Q 3666 2988 3187 3494 
Q 2709 4000 1959 4000 
Q 1678 4000 1319 3909 
L 1319 306 
z
" transform="scale(0.015625)"/>
       <path id="TimesNewRomanPSMT-69" d="M 928 4444 
Q 1059 4444 1151 4351 
Q 1244 4259 1244 4128 
Q 1244 3997 1151 3903 
Q 1059 3809 928 3809 
Q 797 3809 703 3903 
Q 609 3997 609 4128 
Q 609 4259 701 4351 
Q 794 4444 928 4444 
z
M 1188 2947 
L 1188 647 
Q 1188 378 1227 289 
Q 1266 200 1342 156 
Q 1419 113 1622 113 
L 1622 0 
L 231 0 
L 231 113 
Q 441 113 512 153 
Q 584 194 626 287 
Q 669 381 669 647 
L 669 1750 
Q 669 2216 641 2353 
Q 619 2453 572 2492 
Q 525 2531 444 2531 
Q 356 2531 231 2484 
L 188 2597 
L 1050 2947 
L 1188 2947 
z
" transform="scale(0.015625)"/>
       <path id="TimesNewRomanPSMT-73" d="M 2050 2947 
L 2050 1972 
L 1947 1972 
Q 1828 2431 1642 2597 
Q 1456 2763 1169 2763 
Q 950 2763 815 2647 
Q 681 2531 681 2391 
Q 681 2216 781 2091 
Q 878 1963 1175 1819 
L 1631 1597 
Q 2266 1288 2266 781 
Q 2266 391 1970 151 
Q 1675 -88 1309 -88 
Q 1047 -88 709 6 
Q 606 38 541 38 
Q 469 38 428 -44 
L 325 -44 
L 325 978 
L 428 978 
Q 516 541 762 319 
Q 1009 97 1316 97 
Q 1531 97 1667 223 
Q 1803 350 1803 528 
Q 1803 744 1651 891 
Q 1500 1038 1047 1263 
Q 594 1488 453 1669 
Q 313 1847 313 2119 
Q 313 2472 555 2709 
Q 797 2947 1181 2947 
Q 1350 2947 1591 2875 
Q 1750 2828 1803 2828 
Q 1853 2828 1881 2850 
Q 1909 2872 1947 2947 
L 2050 2947 
z
" transform="scale(0.015625)"/>
       <path id="TimesNewRomanPSMT-74" d="M 1031 3803 
L 1031 2863 
L 1700 2863 
L 1700 2644 
L 1031 2644 
L 1031 788 
Q 1031 509 1111 412 
Q 1191 316 1316 316 
Q 1419 316 1516 380 
Q 1613 444 1666 569 
L 1788 569 
Q 1678 263 1478 108 
Q 1278 -47 1066 -47 
Q 922 -47 784 33 
Q 647 113 581 261 
Q 516 409 516 719 
L 516 2644 
L 63 2644 
L 63 2747 
Q 234 2816 414 2980 
Q 594 3144 734 3369 
Q 806 3488 934 3803 
L 1031 3803 
z
" transform="scale(0.015625)"/>
       <path id="TimesNewRomanPSMT-61" d="M 1822 413 
Q 1381 72 1269 19 
Q 1100 -59 909 -59 
Q 613 -59 420 144 
Q 228 347 228 678 
Q 228 888 322 1041 
Q 450 1253 767 1440 
Q 1084 1628 1822 1897 
L 1822 2009 
Q 1822 2438 1686 2597 
Q 1550 2756 1291 2756 
Q 1094 2756 978 2650 
Q 859 2544 859 2406 
L 866 2225 
Q 866 2081 792 2003 
Q 719 1925 600 1925 
Q 484 1925 411 2006 
Q 338 2088 338 2228 
Q 338 2497 613 2722 
Q 888 2947 1384 2947 
Q 1766 2947 2009 2819 
Q 2194 2722 2281 2516 
Q 2338 2381 2338 1966 
L 2338 994 
Q 2338 584 2353 492 
Q 2369 400 2405 369 
Q 2441 338 2488 338 
Q 2538 338 2575 359 
Q 2641 400 2828 588 
L 2828 413 
Q 2478 -56 2159 -56 
Q 2006 -56 1915 50 
Q 1825 156 1822 413 
z
M 1822 616 
L 1822 1706 
Q 1350 1519 1213 1441 
Q 966 1303 859 1153 
Q 753 1003 753 825 
Q 753 600 887 451 
Q 1022 303 1197 303 
Q 1434 303 1822 616 
z
" transform="scale(0.015625)"/>
       <path id="TimesNewRomanPSMT-6e" d="M 1034 2341 
Q 1538 2947 1994 2947 
Q 2228 2947 2397 2830 
Q 2566 2713 2666 2444 
Q 2734 2256 2734 1869 
L 2734 647 
Q 2734 375 2778 278 
Q 2813 200 2889 156 
Q 2966 113 3172 113 
L 3172 0 
L 1756 0 
L 1756 113 
L 1816 113 
Q 2016 113 2095 173 
Q 2175 234 2206 353 
Q 2219 400 2219 647 
L 2219 1819 
Q 2219 2209 2117 2386 
Q 2016 2563 1775 2563 
Q 1403 2563 1034 2156 
L 1034 647 
Q 1034 356 1069 288 
Q 1113 197 1189 155 
Q 1266 113 1500 113 
L 1500 0 
L 84 0 
L 84 113 
L 147 113 
Q 366 113 442 223 
Q 519 334 519 647 
L 519 1709 
Q 519 2225 495 2337 
Q 472 2450 423 2490 
Q 375 2531 294 2531 
Q 206 2531 84 2484 
L 38 2597 
L 900 2947 
L 1034 2947 
L 1034 2341 
z
" transform="scale(0.015625)"/>
       <path id="TimesNewRomanPSMT-63" d="M 2631 1088 
Q 2516 522 2178 217 
Q 1841 -88 1431 -88 
Q 944 -88 581 321 
Q 219 731 219 1428 
Q 219 2103 620 2525 
Q 1022 2947 1584 2947 
Q 2006 2947 2278 2723 
Q 2550 2500 2550 2259 
Q 2550 2141 2473 2067 
Q 2397 1994 2259 1994 
Q 2075 1994 1981 2113 
Q 1928 2178 1911 2362 
Q 1894 2547 1784 2644 
Q 1675 2738 1481 2738 
Q 1169 2738 978 2506 
Q 725 2200 725 1697 
Q 725 1184 976 792 
Q 1228 400 1656 400 
Q 1963 400 2206 609 
Q 2378 753 2541 1131 
L 2631 1088 
z
" transform="scale(0.015625)"/>
       <path id="TimesNewRomanPSMT-65" d="M 681 1784 
Q 678 1147 991 784 
Q 1303 422 1725 422 
Q 2006 422 2214 576 
Q 2422 731 2563 1106 
L 2659 1044 
Q 2594 616 2278 264 
Q 1963 -88 1488 -88 
Q 972 -88 605 314 
Q 238 716 238 1394 
Q 238 2128 614 2539 
Q 991 2950 1559 2950 
Q 2041 2950 2350 2633 
Q 2659 2316 2659 1784 
L 681 1784 
z
M 681 1966 
L 2006 1966 
Q 1991 2241 1941 2353 
Q 1863 2528 1708 2628 
Q 1553 2728 1384 2728 
Q 1125 2728 920 2526 
Q 716 2325 681 1966 
z
" transform="scale(0.015625)"/>
       <path id="TimesNewRomanPSMT-20" transform="scale(0.015625)"/>
       <path id="TimesNewRomanPSMT-66" d="M 1319 2638 
L 1319 756 
Q 1319 356 1406 250 
Q 1522 113 1716 113 
L 1975 113 
L 1975 0 
L 266 0 
L 266 113 
L 394 113 
Q 519 113 622 175 
Q 725 238 764 344 
Q 803 450 803 756 
L 803 2638 
L 247 2638 
L 247 2863 
L 803 2863 
L 803 3050 
Q 803 3478 940 3775 
Q 1078 4072 1361 4255 
Q 1644 4438 1997 4438 
Q 2325 4438 2600 4225 
Q 2781 4084 2781 3909 
Q 2781 3816 2700 3733 
Q 2619 3650 2525 3650 
Q 2453 3650 2373 3701 
Q 2294 3753 2178 3923 
Q 2063 4094 1966 4153 
Q 1869 4213 1750 4213 
Q 1606 4213 1506 4136 
Q 1406 4059 1362 3898 
Q 1319 3738 1319 3069 
L 1319 2863 
L 2056 2863 
L 2056 2638 
L 1319 2638 
z
" transform="scale(0.015625)"/>
       <path id="TimesNewRomanPSMT-72" d="M 1038 2947 
L 1038 2303 
Q 1397 2947 1775 2947 
Q 1947 2947 2059 2842 
Q 2172 2738 2172 2600 
Q 2172 2478 2090 2393 
Q 2009 2309 1897 2309 
Q 1788 2309 1652 2417 
Q 1516 2525 1450 2525 
Q 1394 2525 1328 2463 
Q 1188 2334 1038 2041 
L 1038 669 
Q 1038 431 1097 309 
Q 1138 225 1241 169 
Q 1344 113 1538 113 
L 1538 0 
L 72 0 
L 72 113 
Q 291 113 397 181 
Q 475 231 506 341 
Q 522 394 522 644 
L 522 1753 
Q 522 2253 501 2348 
Q 481 2444 426 2487 
Q 372 2531 291 2531 
Q 194 2531 72 2484 
L 41 2597 
L 906 2947 
L 1038 2947 
z
" transform="scale(0.015625)"/>
       <path id="TimesNewRomanPSMT-6f" d="M 1600 2947 
Q 2250 2947 2644 2453 
Q 2978 2031 2978 1484 
Q 2978 1100 2793 706 
Q 2609 313 2286 112 
Q 1963 -88 1566 -88 
Q 919 -88 538 428 
Q 216 863 216 1403 
Q 216 1797 411 2186 
Q 606 2575 925 2761 
Q 1244 2947 1600 2947 
z
M 1503 2744 
Q 1338 2744 1170 2645 
Q 1003 2547 900 2300 
Q 797 2053 797 1666 
Q 797 1041 1045 587 
Q 1294 134 1700 134 
Q 2003 134 2200 384 
Q 2397 634 2397 1244 
Q 2397 2006 2069 2444 
Q 1847 2744 1503 2744 
z
" transform="scale(0.015625)"/>
       <path id="TimesNewRomanPSMT-6d" d="M 1050 2338 
Q 1363 2650 1419 2697 
Q 1559 2816 1721 2881 
Q 1884 2947 2044 2947 
Q 2313 2947 2506 2790 
Q 2700 2634 2766 2338 
Q 3088 2713 3309 2830 
Q 3531 2947 3766 2947 
Q 3994 2947 4170 2830 
Q 4347 2713 4450 2447 
Q 4519 2266 4519 1878 
L 4519 647 
Q 4519 378 4559 278 
Q 4591 209 4675 161 
Q 4759 113 4950 113 
L 4950 0 
L 3538 0 
L 3538 113 
L 3597 113 
Q 3781 113 3884 184 
Q 3956 234 3988 344 
Q 4000 397 4000 647 
L 4000 1878 
Q 4000 2228 3916 2372 
Q 3794 2572 3525 2572 
Q 3359 2572 3192 2489 
Q 3025 2406 2788 2181 
L 2781 2147 
L 2788 2013 
L 2788 647 
Q 2788 353 2820 281 
Q 2853 209 2943 161 
Q 3034 113 3253 113 
L 3253 0 
L 1806 0 
L 1806 113 
Q 2044 113 2133 169 
Q 2222 225 2256 338 
Q 2272 391 2272 647 
L 2272 1878 
Q 2272 2228 2169 2381 
Q 2031 2581 1784 2581 
Q 1616 2581 1450 2491 
Q 1191 2353 1050 2181 
L 1050 647 
Q 1050 366 1089 281 
Q 1128 197 1204 155 
Q 1281 113 1516 113 
L 1516 0 
L 100 0 
L 100 113 
Q 297 113 375 155 
Q 453 197 493 289 
Q 534 381 534 647 
L 534 1741 
Q 534 2213 506 2350 
Q 484 2453 437 2492 
Q 391 2531 309 2531 
Q 222 2531 100 2484 
L 53 2597 
L 916 2947 
L 1050 2947 
L 1050 2338 
z
" transform="scale(0.015625)"/>
       <path id="TimesNewRomanPSMT-4f" d="M 2341 4334 
Q 3166 4334 3770 3707 
Q 4375 3081 4375 2144 
Q 4375 1178 3765 540 
Q 3156 -97 2291 -97 
Q 1416 -97 820 525 
Q 225 1147 225 2134 
Q 225 3144 913 3781 
Q 1509 4334 2341 4334 
z
M 2281 4106 
Q 1713 4106 1369 3684 
Q 941 3159 941 2147 
Q 941 1109 1384 550 
Q 1725 125 2284 125 
Q 2881 125 3270 590 
Q 3659 1056 3659 2059 
Q 3659 3147 3231 3681 
Q 2888 4106 2281 4106 
z
" transform="scale(0.015625)"/>
       <path id="TimesNewRomanPSMT-62" d="M 984 2369 
Q 1400 2947 1881 2947 
Q 2322 2947 2650 2570 
Q 2978 2194 2978 1541 
Q 2978 778 2472 313 
Q 2038 -88 1503 -88 
Q 1253 -88 995 3 
Q 738 94 469 275 
L 469 3241 
Q 469 3728 445 3840 
Q 422 3953 372 3993 
Q 322 4034 247 4034 
Q 159 4034 28 3984 
L -16 4094 
L 844 4444 
L 984 4444 
L 984 2369 
z
M 984 2169 
L 984 456 
Q 1144 300 1314 220 
Q 1484 141 1663 141 
Q 1947 141 2192 453 
Q 2438 766 2438 1363 
Q 2438 1913 2192 2208 
Q 1947 2503 1634 2503 
Q 1469 2503 1303 2419 
Q 1178 2356 984 2169 
z
" transform="scale(0.015625)"/>
       <path id="TimesNewRomanPSMT-6c" d="M 1184 4444 
L 1184 647 
Q 1184 378 1223 290 
Q 1263 203 1344 158 
Q 1425 113 1647 113 
L 1647 0 
L 244 0 
L 244 113 
Q 441 113 512 153 
Q 584 194 625 287 
Q 666 381 666 647 
L 666 3247 
Q 666 3731 644 3842 
Q 622 3953 573 3993 
Q 525 4034 450 4034 
Q 369 4034 244 3984 
L 191 4094 
L 1044 4444 
L 1184 4444 
z
" transform="scale(0.015625)"/>
       <path id="TimesNewRomanPSMT-28" d="M 1988 -1253 
L 1988 -1369 
Q 1516 -1131 1200 -813 
Q 750 -359 506 256 
Q 263 872 263 1534 
Q 263 2503 741 3301 
Q 1219 4100 1988 4444 
L 1988 4313 
Q 1603 4100 1356 3731 
Q 1109 3363 987 2797 
Q 866 2231 866 1616 
Q 866 947 969 400 
Q 1050 -31 1165 -292 
Q 1281 -553 1476 -793 
Q 1672 -1034 1988 -1253 
z
" transform="scale(0.015625)"/>
       <path id="TimesNewRomanPSMT-29" d="M 144 4313 
L 144 4444 
Q 619 4209 934 3891 
Q 1381 3434 1625 2820 
Q 1869 2206 1869 1541 
Q 1869 572 1392 -226 
Q 916 -1025 144 -1369 
L 144 -1253 
Q 528 -1038 776 -670 
Q 1025 -303 1145 264 
Q 1266 831 1266 1447 
Q 1266 2113 1163 2663 
Q 1084 3094 967 3353 
Q 850 3613 656 3853 
Q 463 4094 144 4313 
z
" transform="scale(0.015625)"/>
      </defs>
      <use xlink:href="#TimesNewRomanPSMT-44"/>
      <use xlink:href="#TimesNewRomanPSMT-69" x="72.216797"/>
      <use xlink:href="#TimesNewRomanPSMT-73" x="100"/>
      <use xlink:href="#TimesNewRomanPSMT-74" x="138.916016"/>
      <use xlink:href="#TimesNewRomanPSMT-61" x="166.699219"/>
      <use xlink:href="#TimesNewRomanPSMT-6e" x="211.083984"/>
      <use xlink:href="#TimesNewRomanPSMT-63" x="261.083984"/>
      <use xlink:href="#TimesNewRomanPSMT-65" x="305.46875"/>
      <use xlink:href="#TimesNewRomanPSMT-20" x="349.853516"/>
      <use xlink:href="#TimesNewRomanPSMT-66" x="374.853516"/>
      <use xlink:href="#TimesNewRomanPSMT-72" x="408.154297"/>
      <use xlink:href="#TimesNewRomanPSMT-6f" x="441.455078"/>
      <use xlink:href="#TimesNewRomanPSMT-6d" x="491.455078"/>
      <use xlink:href="#TimesNewRomanPSMT-20" x="569.238281"/>
      <use xlink:href="#TimesNewRomanPSMT-4f" x="594.238281"/>
      <use xlink:href="#TimesNewRomanPSMT-62" x="666.455078"/>
      <use xlink:href="#TimesNewRomanPSMT-73" x="716.455078"/>
      <use xlink:href="#TimesNewRomanPSMT-74" x="755.371094"/>
      <use xlink:href="#TimesNewRomanPSMT-61" x="783.154297"/>
      <use xlink:href="#TimesNewRomanPSMT-63" x="827.539062"/>
      <use xlink:href="#TimesNewRomanPSMT-6c" x="871.923828"/>
      <use xlink:href="#TimesNewRomanPSMT-65" x="899.707031"/>
      <use xlink:href="#TimesNewRomanPSMT-20" x="944.091797"/>
      <use xlink:href="#TimesNewRomanPSMT-28" x="969.091797"/>
      <use xlink:href="#TimesNewRomanPSMT-72" x="1002.392578"/>
      <use xlink:href="#TimesNewRomanPSMT-29" x="1035.693359"/>
      <use xlink:href="#TimesNewRomanPSMT-20" x="1068.994141"/>
      <use xlink:href="#TimesNewRomanPSMT-69" x="1093.994141"/>
      <use xlink:href="#TimesNewRomanPSMT-6e" x="1121.777344"/>
      <use xlink:href="#TimesNewRomanPSMT-20" x="1171.777344"/>
      <use xlink:href="#TimesNewRomanPSMT-6d" x="1196.777344"/>
     </g>
    </g>
   </g>
   <g id="matplotlib.axis_2">
    <g id="ytick_1">
     <g id="line2d_23">
      <path d="M 47.192188 205.584565 
L 403.572187 205.584565 
" clip-path="url(#p40ef707ad1)" style="fill: none; stroke: #b0b0b0; stroke-opacity: 0.3; stroke-width: 0.8; stroke-linecap: square"/>
     </g>
     <g id="line2d_24">
      <defs>
       <path id="mfa0295e1f3" d="M 0 0 
L -3.5 0 
" style="stroke: #000000; stroke-width: 0.8"/>
      </defs>
      <g>
       <use xlink:href="#mfa0295e1f3" x="47.192188" y="205.584565" style="stroke: #000000; stroke-width: 0.8"/>
      </g>
     </g>
     <g id="text_13">
      <!-- 0.4 -->
      <g transform="translate(23.942188 210.098002)scale(0.13 -0.13)">
       <defs>
        <path id="TimesNewRomanPSMT-2e" d="M 800 606 
Q 947 606 1047 504 
Q 1147 403 1147 259 
Q 1147 116 1045 14 
Q 944 -88 800 -88 
Q 656 -88 554 14 
Q 453 116 453 259 
Q 453 406 554 506 
Q 656 606 800 606 
z
" transform="scale(0.015625)"/>
       </defs>
       <use xlink:href="#TimesNewRomanPSMT-30"/>
       <use xlink:href="#TimesNewRomanPSMT-2e" x="50"/>
       <use xlink:href="#TimesNewRomanPSMT-34" x="75"/>
      </g>
     </g>
    </g>
    <g id="ytick_2">
     <g id="line2d_25">
      <path d="M 47.192188 142.95329 
L 403.572187 142.95329 
" clip-path="url(#p40ef707ad1)" style="fill: none; stroke: #b0b0b0; stroke-opacity: 0.3; stroke-width: 0.8; stroke-linecap: square"/>
     </g>
     <g id="line2d_26">
      <g>
       <use xlink:href="#mfa0295e1f3" x="47.192188" y="142.95329" style="stroke: #000000; stroke-width: 0.8"/>
      </g>
     </g>
     <g id="text_14">
      <!-- 0.6 -->
      <g transform="translate(23.942188 147.466727)scale(0.13 -0.13)">
       <use xlink:href="#TimesNewRomanPSMT-30"/>
       <use xlink:href="#TimesNewRomanPSMT-2e" x="50"/>
       <use xlink:href="#TimesNewRomanPSMT-36" x="75"/>
      </g>
     </g>
    </g>
    <g id="ytick_3">
     <g id="line2d_27">
      <path d="M 47.192188 80.322014 
L 403.572187 80.322014 
" clip-path="url(#p40ef707ad1)" style="fill: none; stroke: #b0b0b0; stroke-opacity: 0.3; stroke-width: 0.8; stroke-linecap: square"/>
     </g>
     <g id="line2d_28">
      <g>
       <use xlink:href="#mfa0295e1f3" x="47.192188" y="80.322014" style="stroke: #000000; stroke-width: 0.8"/>
      </g>
     </g>
     <g id="text_15">
      <!-- 0.8 -->
      <g transform="translate(23.942188 84.835452)scale(0.13 -0.13)">
       <use xlink:href="#TimesNewRomanPSMT-30"/>
       <use xlink:href="#TimesNewRomanPSMT-2e" x="50"/>
       <use xlink:href="#TimesNewRomanPSMT-38" x="75"/>
      </g>
     </g>
    </g>
    <g id="ytick_4">
     <g id="line2d_29">
      <path d="M 47.192188 17.690739 
L 403.572187 17.690739 
" clip-path="url(#p40ef707ad1)" style="fill: none; stroke: #b0b0b0; stroke-opacity: 0.3; stroke-width: 0.8; stroke-linecap: square"/>
     </g>
     <g id="line2d_30">
      <g>
       <use xlink:href="#mfa0295e1f3" x="47.192188" y="17.690739" style="stroke: #000000; stroke-width: 0.8"/>
      </g>
     </g>
     <g id="text_16">
      <!-- 1.0 -->
      <g transform="translate(23.942188 22.204176)scale(0.13 -0.13)">
       <use xlink:href="#TimesNewRomanPSMT-31"/>
       <use xlink:href="#TimesNewRomanPSMT-2e" x="50"/>
       <use xlink:href="#TimesNewRomanPSMT-30" x="75"/>
      </g>
     </g>
    </g>
    <g id="text_17">
     <!-- Normalized Energy Consumption -->
     <g transform="translate(16.92125 216.959219)rotate(-90)scale(0.14 -0.14)">
      <defs>
       <path id="TimesNewRomanPSMT-4e" d="M -84 4238 
L 1066 4238 
L 3656 1059 
L 3656 3503 
Q 3656 3894 3569 3991 
Q 3453 4122 3203 4122 
L 3056 4122 
L 3056 4238 
L 4531 4238 
L 4531 4122 
L 4381 4122 
Q 4113 4122 4000 3959 
Q 3931 3859 3931 3503 
L 3931 -69 
L 3819 -69 
L 1025 3344 
L 1025 734 
Q 1025 344 1109 247 
Q 1228 116 1475 116 
L 1625 116 
L 1625 0 
L 150 0 
L 150 116 
L 297 116 
Q 569 116 681 278 
Q 750 378 750 734 
L 750 3681 
Q 566 3897 470 3965 
Q 375 4034 191 4094 
Q 100 4122 -84 4122 
L -84 4238 
z
" transform="scale(0.015625)"/>
       <path id="TimesNewRomanPSMT-7a" d="M 2688 878 
L 2653 0 
L 128 0 
L 128 113 
L 2028 2644 
L 1091 2644 
Q 788 2644 694 2605 
Q 600 2566 541 2456 
Q 456 2300 444 2069 
L 319 2069 
L 338 2863 
L 2738 2863 
L 2738 2747 
L 819 209 
L 1863 209 
Q 2191 209 2308 264 
Q 2425 319 2497 456 
Q 2547 556 2581 878 
L 2688 878 
z
" transform="scale(0.015625)"/>
       <path id="TimesNewRomanPSMT-64" d="M 2222 322 
Q 2013 103 1813 7 
Q 1613 -88 1381 -88 
Q 913 -88 563 304 
Q 213 697 213 1313 
Q 213 1928 600 2439 
Q 988 2950 1597 2950 
Q 1975 2950 2222 2709 
L 2222 3238 
Q 2222 3728 2198 3840 
Q 2175 3953 2125 3993 
Q 2075 4034 2000 4034 
Q 1919 4034 1784 3984 
L 1744 4094 
L 2597 4444 
L 2738 4444 
L 2738 1134 
Q 2738 631 2761 520 
Q 2784 409 2836 365 
Q 2888 322 2956 322 
Q 3041 322 3181 375 
L 3216 266 
L 2366 -88 
L 2222 -88 
L 2222 322 
z
M 2222 541 
L 2222 2016 
Q 2203 2228 2109 2403 
Q 2016 2578 1861 2667 
Q 1706 2756 1559 2756 
Q 1284 2756 1069 2509 
Q 784 2184 784 1559 
Q 784 928 1059 592 
Q 1334 256 1672 256 
Q 1956 256 2222 541 
z
" transform="scale(0.015625)"/>
       <path id="TimesNewRomanPSMT-45" d="M 1338 4006 
L 1338 2331 
L 2269 2331 
Q 2631 2331 2753 2441 
Q 2916 2584 2934 2947 
L 3050 2947 
L 3050 1472 
L 2934 1472 
Q 2891 1781 2847 1869 
Q 2791 1978 2662 2040 
Q 2534 2103 2269 2103 
L 1338 2103 
L 1338 706 
Q 1338 425 1363 364 
Q 1388 303 1450 267 
Q 1513 231 1688 231 
L 2406 231 
Q 2766 231 2928 281 
Q 3091 331 3241 478 
Q 3434 672 3638 1063 
L 3763 1063 
L 3397 0 
L 131 0 
L 131 116 
L 281 116 
Q 431 116 566 188 
Q 666 238 702 338 
Q 738 438 738 747 
L 738 3500 
Q 738 3903 656 3997 
Q 544 4122 281 4122 
L 131 4122 
L 131 4238 
L 3397 4238 
L 3444 3309 
L 3322 3309 
Q 3256 3644 3176 3769 
Q 3097 3894 2941 3959 
Q 2816 4006 2500 4006 
L 1338 4006 
z
" transform="scale(0.015625)"/>
       <path id="TimesNewRomanPSMT-67" d="M 966 1044 
Q 703 1172 562 1401 
Q 422 1631 422 1909 
Q 422 2334 742 2640 
Q 1063 2947 1563 2947 
Q 1972 2947 2272 2747 
L 2878 2747 
Q 3013 2747 3034 2739 
Q 3056 2731 3066 2713 
Q 3084 2684 3084 2613 
Q 3084 2531 3069 2500 
Q 3059 2484 3036 2475 
Q 3013 2466 2878 2466 
L 2506 2466 
Q 2681 2241 2681 1891 
Q 2681 1491 2375 1206 
Q 2069 922 1553 922 
Q 1341 922 1119 984 
Q 981 866 932 777 
Q 884 688 884 625 
Q 884 572 936 522 
Q 988 472 1138 450 
Q 1225 438 1575 428 
Q 2219 413 2409 384 
Q 2700 344 2873 169 
Q 3047 -6 3047 -263 
Q 3047 -616 2716 -925 
Q 2228 -1381 1444 -1381 
Q 841 -1381 425 -1109 
Q 191 -953 191 -784 
Q 191 -709 225 -634 
Q 278 -519 444 -313 
Q 466 -284 763 25 
Q 600 122 533 198 
Q 466 275 466 372 
Q 466 481 555 628 
Q 644 775 966 1044 
z
M 1509 2797 
Q 1278 2797 1122 2612 
Q 966 2428 966 2047 
Q 966 1553 1178 1281 
Q 1341 1075 1591 1075 
Q 1828 1075 1981 1253 
Q 2134 1431 2134 1813 
Q 2134 2309 1919 2591 
Q 1759 2797 1509 2797 
z
M 934 0 
Q 788 -159 713 -296 
Q 638 -434 638 -550 
Q 638 -700 819 -813 
Q 1131 -1006 1722 -1006 
Q 2284 -1006 2551 -807 
Q 2819 -609 2819 -384 
Q 2819 -222 2659 -153 
Q 2497 -84 2016 -72 
Q 1313 -53 934 0 
z
" transform="scale(0.015625)"/>
       <path id="TimesNewRomanPSMT-79" d="M 38 2863 
L 1372 2863 
L 1372 2747 
L 1306 2747 
Q 1166 2747 1095 2686 
Q 1025 2625 1025 2534 
Q 1025 2413 1128 2197 
L 1825 753 
L 2466 2334 
Q 2519 2463 2519 2588 
Q 2519 2644 2497 2672 
Q 2472 2706 2419 2726 
Q 2366 2747 2231 2747 
L 2231 2863 
L 3163 2863 
L 3163 2747 
Q 3047 2734 2984 2696 
Q 2922 2659 2847 2556 
Q 2819 2513 2741 2316 
L 1575 -541 
Q 1406 -956 1132 -1168 
Q 859 -1381 606 -1381 
Q 422 -1381 303 -1275 
Q 184 -1169 184 -1031 
Q 184 -900 270 -820 
Q 356 -741 506 -741 
Q 609 -741 788 -809 
Q 913 -856 944 -856 
Q 1038 -856 1148 -759 
Q 1259 -663 1372 -384 
L 1575 113 
L 547 2272 
Q 500 2369 397 2513 
Q 319 2622 269 2659 
Q 197 2709 38 2747 
L 38 2863 
z
" transform="scale(0.015625)"/>
       <path id="TimesNewRomanPSMT-43" d="M 3853 4334 
L 3950 2894 
L 3853 2894 
Q 3659 3541 3300 3825 
Q 2941 4109 2438 4109 
Q 2016 4109 1675 3895 
Q 1334 3681 1139 3212 
Q 944 2744 944 2047 
Q 944 1472 1128 1050 
Q 1313 628 1683 403 
Q 2053 178 2528 178 
Q 2941 178 3256 354 
Q 3572 531 3950 1056 
L 4047 994 
Q 3728 428 3303 165 
Q 2878 -97 2294 -97 
Q 1241 -97 663 684 
Q 231 1266 231 2053 
Q 231 2688 515 3219 
Q 800 3750 1298 4042 
Q 1797 4334 2388 4334 
Q 2847 4334 3294 4109 
Q 3425 4041 3481 4041 
Q 3566 4041 3628 4100 
Q 3709 4184 3744 4334 
L 3853 4334 
z
" transform="scale(0.015625)"/>
       <path id="TimesNewRomanPSMT-75" d="M 2709 2863 
L 2709 1128 
Q 2709 631 2732 520 
Q 2756 409 2807 365 
Q 2859 322 2928 322 
Q 3025 322 3147 375 
L 3191 266 
L 2334 -88 
L 2194 -88 
L 2194 519 
Q 1825 119 1631 15 
Q 1438 -88 1222 -88 
Q 981 -88 804 51 
Q 628 191 559 409 
Q 491 628 491 1028 
L 491 2306 
Q 491 2509 447 2587 
Q 403 2666 317 2708 
Q 231 2750 6 2747 
L 6 2863 
L 1009 2863 
L 1009 947 
Q 1009 547 1148 422 
Q 1288 297 1484 297 
Q 1619 297 1789 381 
Q 1959 466 2194 703 
L 2194 2325 
Q 2194 2569 2105 2655 
Q 2016 2741 1734 2747 
L 1734 2863 
L 2709 2863 
z
" transform="scale(0.015625)"/>
       <path id="TimesNewRomanPSMT-70" d="M -6 2578 
L 875 2934 
L 994 2934 
L 994 2266 
Q 1216 2644 1439 2795 
Q 1663 2947 1909 2947 
Q 2341 2947 2628 2609 
Q 2981 2197 2981 1534 
Q 2981 794 2556 309 
Q 2206 -88 1675 -88 
Q 1444 -88 1275 -22 
Q 1150 25 994 166 
L 994 -706 
Q 994 -1000 1030 -1079 
Q 1066 -1159 1155 -1206 
Q 1244 -1253 1478 -1253 
L 1478 -1369 
L -22 -1369 
L -22 -1253 
L 56 -1253 
Q 228 -1256 350 -1188 
Q 409 -1153 442 -1076 
Q 475 -1000 475 -688 
L 475 2019 
Q 475 2297 450 2372 
Q 425 2447 370 2484 
Q 316 2522 222 2522 
Q 147 2522 31 2478 
L -6 2578 
z
M 994 2081 
L 994 1013 
Q 994 666 1022 556 
Q 1066 375 1236 237 
Q 1406 100 1666 100 
Q 1978 100 2172 344 
Q 2425 663 2425 1241 
Q 2425 1897 2138 2250 
Q 1938 2494 1663 2494 
Q 1513 2494 1366 2419 
Q 1253 2363 994 2081 
z
" transform="scale(0.015625)"/>
      </defs>
      <use xlink:href="#TimesNewRomanPSMT-4e"/>
      <use xlink:href="#TimesNewRomanPSMT-6f" x="72.216797"/>
      <use xlink:href="#TimesNewRomanPSMT-72" x="122.216797"/>
      <use xlink:href="#TimesNewRomanPSMT-6d" x="155.517578"/>
      <use xlink:href="#TimesNewRomanPSMT-61" x="233.300781"/>
      <use xlink:href="#TimesNewRomanPSMT-6c" x="277.685547"/>
      <use xlink:href="#TimesNewRomanPSMT-69" x="305.46875"/>
      <use xlink:href="#TimesNewRomanPSMT-7a" x="333.251953"/>
      <use xlink:href="#TimesNewRomanPSMT-65" x="377.636719"/>
      <use xlink:href="#TimesNewRomanPSMT-64" x="422.021484"/>
      <use xlink:href="#TimesNewRomanPSMT-20" x="472.021484"/>
      <use xlink:href="#TimesNewRomanPSMT-45" x="497.021484"/>
      <use xlink:href="#TimesNewRomanPSMT-6e" x="558.105469"/>
      <use xlink:href="#TimesNewRomanPSMT-65" x="608.105469"/>
      <use xlink:href="#TimesNewRomanPSMT-72" x="652.490234"/>
      <use xlink:href="#TimesNewRomanPSMT-67" x="684.041016"/>
      <use xlink:href="#TimesNewRomanPSMT-79" x="734.041016"/>
      <use xlink:href="#TimesNewRomanPSMT-20" x="784.041016"/>
      <use xlink:href="#TimesNewRomanPSMT-43" x="809.041016"/>
      <use xlink:href="#TimesNewRomanPSMT-6f" x="875.740234"/>
      <use xlink:href="#TimesNewRomanPSMT-6e" x="925.740234"/>
      <use xlink:href="#TimesNewRomanPSMT-73" x="975.740234"/>
      <use xlink:href="#TimesNewRomanPSMT-75" x="1014.65625"/>
      <use xlink:href="#TimesNewRomanPSMT-6d" x="1064.65625"/>
      <use xlink:href="#TimesNewRomanPSMT-70" x="1142.439453"/>
      <use xlink:href="#TimesNewRomanPSMT-74" x="1192.439453"/>
      <use xlink:href="#TimesNewRomanPSMT-69" x="1220.222656"/>
      <use xlink:href="#TimesNewRomanPSMT-6f" x="1248.005859"/>
      <use xlink:href="#TimesNewRomanPSMT-6e" x="1298.005859"/>
     </g>
    </g>
   </g>
   <g id="line2d_31">
    <path d="M 47.192188 17.690739 
L 65.011188 17.690739 
L 82.830188 17.690739 
L 100.649188 17.690739 
L 118.468187 17.690739 
L 136.287188 55.269504 
L 154.106188 99.111397 
L 171.925187 95.979833 
L 189.744188 99.111397 
L 207.563187 155.479545 
L 225.382188 189.926746 
L 243.201188 199.321437 
L 261.020187 202.453001 
L 278.839187 205.584565 
L 296.658187 205.584565 
L 314.477187 193.05831 
L 332.296187 196.189874 
L 350.115187 196.189874 
L 367.934187 186.795182 
L 385.753187 205.584565 
L 403.572187 224.373948 
" clip-path="url(#p40ef707ad1)" style="fill: none; stroke-dasharray: 7.4,3.2; stroke-dashoffset: 0; stroke: #000000; stroke-width: 2"/>
   </g>
   <g id="line2d_32">
    <path d="M 47.192188 17.690739 
L 65.011188 17.690739 
L 82.830188 17.690739 
L 100.649188 17.690739 
L 118.468187 17.690739 
L 136.287188 49.006376 
L 154.106188 83.453578 
L 171.925187 83.453578 
L 189.744188 86.585142 
L 207.563187 146.084853 
L 225.382188 174.268927 
L 243.201188 186.795182 
L 261.020187 202.453001 
L 278.839187 193.05831 
L 296.658187 193.05831 
L 314.477187 193.05831 
L 332.296187 183.663619 
L 350.115187 189.926746 
L 367.934187 183.663619 
L 385.753187 193.05831 
L 403.572187 224.373948 
" clip-path="url(#p40ef707ad1)" style="fill: none; stroke-dasharray: 7.4,3.2; stroke-dashoffset: 0; stroke: #7d3f20; stroke-width: 2"/>
   </g>
   <g id="line2d_33">
    <path d="M 100.649188 17.690739 
L 118.468187 17.690739 
L 136.287188 183.663619 
L 154.106188 177.400491 
L 171.925187 161.742672 
L 189.744188 149.216417 
L 207.563187 183.663619 
L 225.382188 205.584565 
L 243.201188 202.453001 
L 261.020187 214.979256 
L 278.839187 211.847693 
L 296.658187 208.716129 
L 314.477187 208.716129 
L 332.296187 202.453001 
L 350.115187 202.453001 
L 367.934187 202.453001 
L 385.753187 208.716129 
L 403.572187 227.505511 
" clip-path="url(#p40ef707ad1)" style="fill: none; stroke-dasharray: 7.4,3.2; stroke-dashoffset: 0; stroke: #d19a30; stroke-width: 2"/>
   </g>
   <g id="line2d_34">
    <path d="M 100.649188 17.690739 
L 118.468187 17.690739 
L 136.287188 158.611108 
L 154.106188 177.400491 
L 171.925187 158.611108 
L 189.744188 152.347981 
L 207.563187 193.05831 
L 225.382188 196.189874 
L 243.201188 205.584565 
L 261.020187 218.11082 
L 278.839187 224.373948 
L 296.658187 221.242384 
L 314.477187 218.11082 
L 332.296187 211.847693 
L 350.115187 205.584565 
L 367.934187 205.584565 
L 385.753187 205.584565 
L 403.572187 227.505511 
" clip-path="url(#p40ef707ad1)" style="fill: none; stroke-dasharray: 7.4,3.2; stroke-dashoffset: 0; stroke: #f3cc3c; stroke-width: 2"/>
   </g>
   <g id="line2d_35">
    <path d="M 47.192188 17.690739 
L 65.011188 17.690739 
L 82.830188 17.690739 
L 100.649188 17.690739 
L 118.468187 17.690739 
L 136.287188 30.216994 
L 154.106188 55.269504 
L 171.925187 55.269504 
L 189.744188 58.401068 
L 207.563187 77.19045 
L 225.382188 92.848269 
L 243.201188 99.111397 
L 261.020187 111.637652 
L 278.839187 108.506088 
L 296.658187 105.374524 
L 314.477187 105.374524 
L 332.296187 108.506088 
L 350.115187 105.374524 
L 367.934187 105.374524 
L 385.753187 102.24296 
L 403.572187 117.900779 
" clip-path="url(#p40ef707ad1)" style="fill: none; stroke: #0c2d48; stroke-width: 2; stroke-linecap: square"/>
   </g>
   <g id="line2d_36">
    <path d="M 47.192188 17.690739 
L 65.011188 17.690739 
L 82.830188 17.690739 
L 100.649188 17.690739 
L 118.468187 17.690739 
L 136.287188 30.216994 
L 154.106188 52.13794 
L 171.925187 49.006376 
L 189.744188 52.13794 
L 207.563187 70.927323 
L 225.382188 89.716705 
L 243.201188 102.24296 
L 261.020187 105.374524 
L 278.839187 105.374524 
L 296.658187 99.111397 
L 314.477187 105.374524 
L 332.296187 99.111397 
L 350.115187 99.111397 
L 367.934187 102.24296 
L 385.753187 99.111397 
L 403.572187 117.900779 
" clip-path="url(#p40ef707ad1)" style="fill: none; stroke: #145da0; stroke-width: 2; stroke-linecap: square"/>
   </g>
   <g id="line2d_37">
    <path d="M 82.830188 17.690739 
L 100.649188 17.690739 
L 118.468187 17.690739 
L 136.287188 89.716705 
L 154.106188 74.058887 
L 171.925187 74.058887 
L 189.744188 77.19045 
L 207.563187 92.848269 
L 225.382188 99.111397 
L 243.201188 102.24296 
L 261.020187 117.900779 
L 278.839187 111.637652 
L 296.658187 108.506088 
L 314.477187 117.900779 
L 332.296187 111.637652 
L 350.115187 111.637652 
L 367.934187 111.637652 
L 385.753187 102.24296 
L 403.572187 121.032343 
" clip-path="url(#p40ef707ad1)" style="fill: none; stroke: #2e8bc0; stroke-width: 2; stroke-linecap: square"/>
   </g>
   <g id="line2d_38">
    <path d="M 100.649188 17.690739 
L 118.468187 17.690739 
L 136.287188 80.322014 
L 154.106188 83.453578 
L 171.925187 77.19045 
L 189.744188 80.322014 
L 207.563187 92.848269 
L 225.382188 102.24296 
L 243.201188 108.506088 
L 261.020187 114.769216 
L 278.839187 117.900779 
L 296.658187 114.769216 
L 314.477187 114.769216 
L 332.296187 111.637652 
L 350.115187 108.506088 
L 367.934187 114.769216 
L 385.753187 105.374524 
L 403.572187 121.032343 
" clip-path="url(#p40ef707ad1)" style="fill: none; stroke: #b1d4e0; stroke-width: 2; stroke-linecap: square"/>
   </g>
   <g id="line2d_39">
    <path d="M 82.830188 237.99625 
L 82.830188 7.2 
" clip-path="url(#p40ef707ad1)" style="fill: none; stroke-dasharray: 6.4,1.6,1,1.6; stroke-dashoffset: 0; stroke: #000000"/>
   </g>
   <g id="patch_3">
    <path d="M 47.192188 237.99625 
L 47.192188 7.2 
" style="fill: none; stroke: #000000; stroke-width: 0.8; stroke-linejoin: miter; stroke-linecap: square"/>
   </g>
   <g id="patch_4">
    <path d="M 403.572187 237.99625 
L 403.572187 7.2 
" style="fill: none; stroke: #000000; stroke-width: 0.8; stroke-linejoin: miter; stroke-linecap: square"/>
   </g>
   <g id="patch_5">
    <path d="M 47.192188 237.99625 
L 403.572187 237.99625 
" style="fill: none; stroke: #000000; stroke-width: 0.8; stroke-linejoin: miter; stroke-linecap: square"/>
   </g>
   <g id="patch_6">
    <path d="M 47.192188 7.2 
L 403.572187 7.2 
" style="fill: none; stroke: #000000; stroke-width: 0.8; stroke-linejoin: miter; stroke-linecap: square"/>
   </g>
   <g id="legend_1">
    <g id="line2d_40">
     <path d="M 213.371038 17.584075 
L 225.371038 17.584075 
L 237.371038 17.584075 
" style="fill: none; stroke-dasharray: 7.4,3.2; stroke-dashoffset: 0; stroke: #000000; stroke-width: 2"/>
    </g>
    <g id="text_18">
     <!-- (S=0, N=0) -->
     <g transform="translate(246.971038 21.784075)scale(0.12 -0.12)">
      <defs>
       <path id="TimesNewRomanPSMT-53" d="M 2934 4334 
L 2934 2869 
L 2819 2869 
Q 2763 3291 2617 3541 
Q 2472 3791 2203 3937 
Q 1934 4084 1647 4084 
Q 1322 4084 1109 3886 
Q 897 3688 897 3434 
Q 897 3241 1031 3081 
Q 1225 2847 1953 2456 
Q 2547 2138 2764 1967 
Q 2981 1797 3098 1565 
Q 3216 1334 3216 1081 
Q 3216 600 2842 251 
Q 2469 -97 1881 -97 
Q 1697 -97 1534 -69 
Q 1438 -53 1133 45 
Q 828 144 747 144 
Q 669 144 623 97 
Q 578 50 556 -97 
L 441 -97 
L 441 1356 
L 556 1356 
Q 638 900 775 673 
Q 913 447 1195 297 
Q 1478 147 1816 147 
Q 2206 147 2432 353 
Q 2659 559 2659 841 
Q 2659 997 2573 1156 
Q 2488 1316 2306 1453 
Q 2184 1547 1640 1851 
Q 1097 2156 867 2337 
Q 638 2519 519 2737 
Q 400 2956 400 3219 
Q 400 3675 750 4004 
Q 1100 4334 1641 4334 
Q 1978 4334 2356 4169 
Q 2531 4091 2603 4091 
Q 2684 4091 2736 4139 
Q 2788 4188 2819 4334 
L 2934 4334 
z
" transform="scale(0.015625)"/>
       <path id="TimesNewRomanPSMT-2c" d="M 344 -1066 
L 344 -928 
Q 666 -822 842 -598 
Q 1019 -375 1019 -125 
Q 1019 -66 991 -25 
Q 969 3 947 3 
Q 913 3 797 -59 
Q 741 -88 678 -88 
Q 525 -88 434 3 
Q 344 94 344 253 
Q 344 406 461 515 
Q 578 625 747 625 
Q 953 625 1114 445 
Q 1275 266 1275 -31 
Q 1275 -353 1051 -629 
Q 828 -906 344 -1066 
z
" transform="scale(0.015625)"/>
      </defs>
      <use xlink:href="#TimesNewRomanPSMT-28"/>
      <use xlink:href="#TimesNewRomanPSMT-53" x="33.300781"/>
      <use xlink:href="#TimesNewRomanPSMT-3d" x="88.916016"/>
      <use xlink:href="#TimesNewRomanPSMT-30" x="145.3125"/>
      <use xlink:href="#TimesNewRomanPSMT-2c" x="195.3125"/>
      <use xlink:href="#TimesNewRomanPSMT-20" x="220.3125"/>
      <use xlink:href="#TimesNewRomanPSMT-4e" x="245.3125"/>
      <use xlink:href="#TimesNewRomanPSMT-3d" x="317.529297"/>
      <use xlink:href="#TimesNewRomanPSMT-30" x="373.925781"/>
      <use xlink:href="#TimesNewRomanPSMT-29" x="423.925781"/>
     </g>
    </g>
    <g id="line2d_41">
     <path d="M 213.371038 34.55095 
L 225.371038 34.55095 
L 237.371038 34.55095 
" style="fill: none; stroke-dasharray: 7.4,3.2; stroke-dashoffset: 0; stroke: #7d3f20; stroke-width: 2"/>
    </g>
    <g id="text_19">
     <!-- (S=0, N=1) -->
     <g transform="translate(246.971038 38.75095)scale(0.12 -0.12)">
      <use xlink:href="#TimesNewRomanPSMT-28"/>
      <use xlink:href="#TimesNewRomanPSMT-53" x="33.300781"/>
      <use xlink:href="#TimesNewRomanPSMT-3d" x="88.916016"/>
      <use xlink:href="#TimesNewRomanPSMT-30" x="145.3125"/>
      <use xlink:href="#TimesNewRomanPSMT-2c" x="195.3125"/>
      <use xlink:href="#TimesNewRomanPSMT-20" x="220.3125"/>
      <use xlink:href="#TimesNewRomanPSMT-4e" x="245.3125"/>
      <use xlink:href="#TimesNewRomanPSMT-3d" x="317.529297"/>
      <use xlink:href="#TimesNewRomanPSMT-31" x="373.925781"/>
      <use xlink:href="#TimesNewRomanPSMT-29" x="423.925781"/>
     </g>
    </g>
    <g id="line2d_42">
     <path d="M 213.371038 51.517825 
L 225.371038 51.517825 
L 237.371038 51.517825 
" style="fill: none; stroke-dasharray: 7.4,3.2; stroke-dashoffset: 0; stroke: #d19a30; stroke-width: 2"/>
    </g>
    <g id="text_20">
     <!-- (S=1, N=0) -->
     <g transform="translate(246.971038 55.717825)scale(0.12 -0.12)">
      <use xlink:href="#TimesNewRomanPSMT-28"/>
      <use xlink:href="#TimesNewRomanPSMT-53" x="33.300781"/>
      <use xlink:href="#TimesNewRomanPSMT-3d" x="88.916016"/>
      <use xlink:href="#TimesNewRomanPSMT-31" x="145.3125"/>
      <use xlink:href="#TimesNewRomanPSMT-2c" x="195.3125"/>
      <use xlink:href="#TimesNewRomanPSMT-20" x="220.3125"/>
      <use xlink:href="#TimesNewRomanPSMT-4e" x="245.3125"/>
      <use xlink:href="#TimesNewRomanPSMT-3d" x="317.529297"/>
      <use xlink:href="#TimesNewRomanPSMT-30" x="373.925781"/>
      <use xlink:href="#TimesNewRomanPSMT-29" x="423.925781"/>
     </g>
    </g>
    <g id="line2d_43">
     <path d="M 213.371038 68.4847 
L 225.371038 68.4847 
L 237.371038 68.4847 
" style="fill: none; stroke-dasharray: 7.4,3.2; stroke-dashoffset: 0; stroke: #f3cc3c; stroke-width: 2"/>
    </g>
    <g id="text_21">
     <!-- (S=1, N=1) -->
     <g transform="translate(246.971038 72.6847)scale(0.12 -0.12)">
      <use xlink:href="#TimesNewRomanPSMT-28"/>
      <use xlink:href="#TimesNewRomanPSMT-53" x="33.300781"/>
      <use xlink:href="#TimesNewRomanPSMT-3d" x="88.916016"/>
      <use xlink:href="#TimesNewRomanPSMT-31" x="145.3125"/>
      <use xlink:href="#TimesNewRomanPSMT-2c" x="195.3125"/>
      <use xlink:href="#TimesNewRomanPSMT-20" x="220.3125"/>
      <use xlink:href="#TimesNewRomanPSMT-4e" x="245.3125"/>
      <use xlink:href="#TimesNewRomanPSMT-3d" x="317.529297"/>
      <use xlink:href="#TimesNewRomanPSMT-31" x="373.925781"/>
      <use xlink:href="#TimesNewRomanPSMT-29" x="423.925781"/>
     </g>
    </g>
    <g id="line2d_44">
     <path d="M 311.435413 17.584075 
L 323.435413 17.584075 
L 335.435413 17.584075 
" style="fill: none; stroke: #0c2d48; stroke-width: 2; stroke-linecap: square"/>
    </g>
    <g id="text_22">
     <!-- (S=0, N=0) -->
     <g transform="translate(345.035413 21.784075)scale(0.12 -0.12)">
      <use xlink:href="#TimesNewRomanPSMT-28"/>
      <use xlink:href="#TimesNewRomanPSMT-53" x="33.300781"/>
      <use xlink:href="#TimesNewRomanPSMT-3d" x="88.916016"/>
      <use xlink:href="#TimesNewRomanPSMT-30" x="145.3125"/>
      <use xlink:href="#TimesNewRomanPSMT-2c" x="195.3125"/>
      <use xlink:href="#TimesNewRomanPSMT-20" x="220.3125"/>
      <use xlink:href="#TimesNewRomanPSMT-4e" x="245.3125"/>
      <use xlink:href="#TimesNewRomanPSMT-3d" x="317.529297"/>
      <use xlink:href="#TimesNewRomanPSMT-30" x="373.925781"/>
      <use xlink:href="#TimesNewRomanPSMT-29" x="423.925781"/>
     </g>
    </g>
    <g id="line2d_45">
     <path d="M 311.435413 34.55095 
L 323.435413 34.55095 
L 335.435413 34.55095 
" style="fill: none; stroke: #145da0; stroke-width: 2; stroke-linecap: square"/>
    </g>
    <g id="text_23">
     <!-- (S=0, N=1) -->
     <g transform="translate(345.035413 38.75095)scale(0.12 -0.12)">
      <use xlink:href="#TimesNewRomanPSMT-28"/>
      <use xlink:href="#TimesNewRomanPSMT-53" x="33.300781"/>
      <use xlink:href="#TimesNewRomanPSMT-3d" x="88.916016"/>
      <use xlink:href="#TimesNewRomanPSMT-30" x="145.3125"/>
      <use xlink:href="#TimesNewRomanPSMT-2c" x="195.3125"/>
      <use xlink:href="#TimesNewRomanPSMT-20" x="220.3125"/>
      <use xlink:href="#TimesNewRomanPSMT-4e" x="245.3125"/>
      <use xlink:href="#TimesNewRomanPSMT-3d" x="317.529297"/>
      <use xlink:href="#TimesNewRomanPSMT-31" x="373.925781"/>
      <use xlink:href="#TimesNewRomanPSMT-29" x="423.925781"/>
     </g>
    </g>
    <g id="line2d_46">
     <path d="M 311.435413 51.517825 
L 323.435413 51.517825 
L 335.435413 51.517825 
" style="fill: none; stroke: #2e8bc0; stroke-width: 2; stroke-linecap: square"/>
    </g>
    <g id="text_24">
     <!-- (S=1, N=0) -->
     <g transform="translate(345.035413 55.717825)scale(0.12 -0.12)">
      <use xlink:href="#TimesNewRomanPSMT-28"/>
      <use xlink:href="#TimesNewRomanPSMT-53" x="33.300781"/>
      <use xlink:href="#TimesNewRomanPSMT-3d" x="88.916016"/>
      <use xlink:href="#TimesNewRomanPSMT-31" x="145.3125"/>
      <use xlink:href="#TimesNewRomanPSMT-2c" x="195.3125"/>
      <use xlink:href="#TimesNewRomanPSMT-20" x="220.3125"/>
      <use xlink:href="#TimesNewRomanPSMT-4e" x="245.3125"/>
      <use xlink:href="#TimesNewRomanPSMT-3d" x="317.529297"/>
      <use xlink:href="#TimesNewRomanPSMT-30" x="373.925781"/>
      <use xlink:href="#TimesNewRomanPSMT-29" x="423.925781"/>
     </g>
    </g>
    <g id="line2d_47">
     <path d="M 311.435413 68.4847 
L 323.435413 68.4847 
L 335.435413 68.4847 
" style="fill: none; stroke: #b1d4e0; stroke-width: 2; stroke-linecap: square"/>
    </g>
    <g id="text_25">
     <!-- (S=1, N=1) -->
     <g transform="translate(345.035413 72.6847)scale(0.12 -0.12)">
      <use xlink:href="#TimesNewRomanPSMT-28"/>
      <use xlink:href="#TimesNewRomanPSMT-53" x="33.300781"/>
      <use xlink:href="#TimesNewRomanPSMT-3d" x="88.916016"/>
      <use xlink:href="#TimesNewRomanPSMT-31" x="145.3125"/>
      <use xlink:href="#TimesNewRomanPSMT-2c" x="195.3125"/>
      <use xlink:href="#TimesNewRomanPSMT-20" x="220.3125"/>
      <use xlink:href="#TimesNewRomanPSMT-4e" x="245.3125"/>
      <use xlink:href="#TimesNewRomanPSMT-3d" x="317.529297"/>
      <use xlink:href="#TimesNewRomanPSMT-31" x="373.925781"/>
      <use xlink:href="#TimesNewRomanPSMT-29" x="423.925781"/>
     </g>
    </g>
   </g>
  </g>
 </g>
 <defs>
  <clipPath id="p40ef707ad1">
   <rect x="47.192188" y="7.2" width="356.38" height="230.79625"/>
  </clipPath>
 </defs>
</svg>
